<?xml version="1.0" encoding="UTF-8"?>
<svg width="239.25" height="195.1" version="1.1" viewBox="0 0 239.25 195.1" xmlns="http://www.w3.org/2000/svg">
  <style
     id="style1">
    @media (prefers-color-scheme: light) {
      .fg-stroke { stroke: #333333; }
    }
    @media (prefers-color-scheme: dark) {
      .fg-stroke { stroke: #dddddd; }
    }
 </style>
 <g transform="matrix(2.7423 0 0 2.7423 -249.55 -2602.5)">
  <g fill-opacity="0">
   <path transform="matrix(7.1878e-4,0,0,7.1878e-4,80.079,877.96)" d="m108085 98981c13845 12589 21845 30359 22090 49070s-7286.8 36685-20798 49632l-46713-48748z"/>
   <g stroke="#595959" class="fg-stroke" stroke-dasharray="381, 1143" stroke-linejoin="round" stroke-miterlimit="8" stroke-width="381">
    <path transform="matrix(7.1878e-4,0,0,7.1878e-4,80.079,877.96)" d="m108085 98981c13845 12589 21845 30359 22090 49070s-7286.8 36685-20798 49632"/>
    <path transform="matrix(7.1878e-4,0,0,7.1878e-4,80.079,877.96)" d="m15384 148935c0-26109 21165-47274 47274-47274 12538 0 24562 4980.6 33428 13846 8865.6 8865.6 13846 20890 13846 33428 0 26109-21165 47274-47274 47274s-47274-21165-47274-47274z"/>
    <path transform="matrix(7.1878e-4,0,0,7.1878e-4,80.079,877.96)" d="m33009 148937c0-16380 13278-29658 29658-29658 7865.8 0 15409 3124.7 20971 8686.6s8686.6 13106 8686.6 20971c0 16380-13278 29658-29658 29658s-29658-13278-29658-29658z"/>
   </g>
  </g>
  <g fill-rule="evenodd" stroke="#595959" stroke-linejoin="round" stroke-miterlimit="8">
   <g fill="#b6d7a8" stroke-width="1143">
    <path transform="matrix(7.1878e-4,0,0,7.1878e-4,80.079,877.96)" d="m109935 152336 4374.4-10726 4444.7 4939.1z"/>
    <path transform="matrix(7.1878e-4,0,0,7.1878e-4,80.079,877.96)" d="m109935 152335 8816-5781.9 5789.2 2889.4z"/>
    <path transform="matrix(7.1878e-4,0,0,7.1878e-4,80.079,877.96)" d="m114310 141610 10090-1622.9-5645.4 6563.5z"/>
    <path transform="matrix(7.1878e-4,0,0,7.1878e-4,80.079,877.96)" d="m124399 139987 6985.2 3245.8-12631 3316.2z"/>
    <path transform="matrix(7.1878e-4,0,0,7.1878e-4,80.079,877.96)" d="m118755 146549 12629-3316.2-6843 6210.2z"/>
   </g>
   <g fill="#ffd966" stroke-width="762">
    <path transform="matrix(7.1878e-4,0,0,7.1878e-4,80.079,877.96)" d="m92321 154205 1899-4656 1929.6 2144.1z"/>
    <path transform="matrix(7.1878e-4,0,0,7.1878e-4,80.079,877.96)" d="m92321 154205 3827.3-2509.9 2513.2 1254.3z"/>
    <path transform="matrix(7.1878e-4,0,0,7.1878e-4,80.079,877.96)" d="m94221 149549 4380.4-704.5-2450.8 2849.2z"/>
    <path transform="matrix(7.1878e-4,0,0,7.1878e-4,80.079,877.96)" d="m98601 148845 3032.5 1409-5483.3 1439.6z"/>
    <path transform="matrix(7.1878e-4,0,0,7.1878e-4,80.079,877.96)" d="m96150 151693 5482.6-1439.6-2970.7 2695.8z"/>
    <path transform="matrix(7.1878e-4,0,0,7.1878e-4,80.079,877.96)" d="m98050 145351 1899-4656 1929.6 2144z"/>
    <path transform="matrix(7.1878e-4,0,0,7.1878e-4,80.079,877.96)" d="m98050 145351 3827.3-2509.9 2513.2 1254.3z"/>
    <path transform="matrix(7.1878e-4,0,0,7.1878e-4,80.079,877.96)" d="m99949 140695 4380.4-704.5-2450.8 2849.2z"/>
    <path transform="matrix(7.1878e-4,0,0,7.1878e-4,80.079,877.96)" d="m104329 139991 3032.5 1409-5483.3 1439.6z"/>
    <path transform="matrix(7.1878e-4,0,0,7.1878e-4,80.079,877.96)" d="m101879 142839 5482.6-1439.6-2970.7 2695.8z"/>
   </g>
   <g fill="#ea9999" stroke-width="381">
    <path transform="matrix(7.1878e-4,0,0,7.1878e-4,80.079,877.96)" d="m75473 144600 1899-4656 1929.6 2144.1z"/>
    <path transform="matrix(7.1878e-4,0,0,7.1878e-4,80.079,877.96)" d="m75473 144600 3827.3-2509.9 2513.2 1254.3z"/>
    <path transform="matrix(7.1878e-4,0,0,7.1878e-4,80.079,877.96)" d="m77372 139944 4380.4-704.5-2450.8 2849.2z"/>
    <path transform="matrix(7.1878e-4,0,0,7.1878e-4,80.079,877.96)" d="m81752 139240 3032.5 1409-5483.3 1439.6z"/>
    <path transform="matrix(7.1878e-4,0,0,7.1878e-4,80.079,877.96)" d="m79302 142088 5482.6-1439.6-2970.7 2695.8z"/>
    <path transform="matrix(7.1878e-4,0,0,7.1878e-4,80.079,877.96)" d="m82061 148846 1899-4656 1929.6 2144.1z"/>
    <path transform="matrix(7.1878e-4,0,0,7.1878e-4,80.079,877.96)" d="m82061 148845 3827.3-2509.9 2513.2 1254.3z"/>
    <path transform="matrix(7.1878e-4,0,0,7.1878e-4,80.079,877.96)" d="m83960 144190 4380.4-704.52-2450.8 2849.2z"/>
    <path transform="matrix(7.1878e-4,0,0,7.1878e-4,80.079,877.96)" d="m88340 143485 3032.5 1409-5483.3 1439.5z"/>
    <path transform="matrix(7.1878e-4,0,0,7.1878e-4,80.079,877.96)" d="m85890 146334 5482.6-1439.6-2970.7 2695.8z"/>
    <path transform="matrix(7.1878e-4,0,0,7.1878e-4,80.079,877.96)" d="m69610 151621 1899-4656 1929.6 2144z"/>
    <path transform="matrix(7.1878e-4,0,0,7.1878e-4,80.079,877.96)" d="m69610 151620 3827.3-2509.9 2513.2 1254.3z"/>
    <path transform="matrix(7.1878e-4,0,0,7.1878e-4,80.079,877.96)" d="m71509 146965 4380.4-704.5-2450.8 2849.2z"/>
    <path transform="matrix(7.1878e-4,0,0,7.1878e-4,80.079,877.96)" d="m75889 146260 3032.5 1409-5483.3 1439.6z"/>
    <path transform="matrix(7.1878e-4,0,0,7.1878e-4,80.079,877.96)" d="m73439 149109 5482.6-1439.6-2970.7 2695.8z"/>
    <path transform="matrix(7.1878e-4,0,0,7.1878e-4,80.079,877.96)" d="m77160 156979 1899-4656 1929.6 2144.1z"/>
    <path transform="matrix(7.1878e-4,0,0,7.1878e-4,80.079,877.96)" d="m77160 156979 3827.3-2509.9 2513.2 1254.3z"/>
    <path transform="matrix(7.1878e-4,0,0,7.1878e-4,80.079,877.96)" d="m79059 152323 4380.4-704.5-2450.8 2849.2z"/>
    <path transform="matrix(7.1878e-4,0,0,7.1878e-4,80.079,877.96)" d="m83439 151619 3032.5 1409-5483.3 1439.6z"/>
    <path transform="matrix(7.1878e-4,0,0,7.1878e-4,80.079,877.96)" d="m80988 154467 5482.6-1439.6-2970.7 2695.8z"/>
   </g>
  </g>
  <g fill-opacity="0">
   <g stroke="#595959" class="fg-stroke" stroke-linejoin="round" stroke-miterlimit="8" stroke-width="381">
    <path transform="matrix(7.1878e-4,0,0,7.1878e-4,80.079,877.96)" d="m60738 149498 73284 43524"/>
    <path transform="matrix(7.1878e-4,0,0,7.1878e-4,80.079,877.96)" d="m60738 149498 75732-46908"/>
    <path transform="matrix(7.1878e-4,0,0,7.1878e-4,80.079,877.96)" d="m68043 154003-120-9144"/>
   </g>
   <path transform="matrix(7.1878e-4,0,0,7.1878e-4,80.079,877.96)" d="m36924 140479h17218v17901h-17218z"/>
  </g>
  <path transform="matrix(7.1878e-4,0,0,7.1878e-4,80.079,877.96)" d="m54459 152345 5107.7 2536.4" fill-opacity="0"/>
  <path transform="matrix(7.1878e-4,0,0,7.1878e-4,80.079,877.96)" d="m54459 152345 2768.8 1374.9" fill="none" stroke="#595959" class="fg-stroke" stroke-linejoin="round" stroke-miterlimit="8" stroke-width="762"/>
  <path transform="matrix(7.1878e-4,0,0,7.1878e-4,80.079,877.96)" d="m57228 153720-1148.6 386.39 2489.8 279.62-1727.6-1814.7z" fill="#595959" fill-rule="evenodd" stroke="#595959" class="fg-stroke" stroke-miterlimit="10" stroke-width="762"/>
  <path transform="matrix(7.1878e-4,0,0,7.1878e-4,80.079,877.96)" d="m54459 146028 5107.7-2536.4" fill-opacity="0"/>
  <path transform="matrix(7.1878e-4,0,0,7.1878e-4,80.079,877.96)" d="m54459 146028 2768.8-1374.9" fill="none" stroke="#595959" class="fg-stroke" stroke-linejoin="round" stroke-miterlimit="8" stroke-width="762"/>
  <path transform="matrix(7.1878e-4,0,0,7.1878e-4,80.079,877.96)" d="m57228 144653-386.37 1148.6 1727.6-1814.6-2489.8 279.64z" fill="#595959" fill-rule="evenodd" stroke="#595959" class="fg-stroke" stroke-miterlimit="10" stroke-width="762"/>
  <path transform="matrix(7.1878e-4,0,0,7.1878e-4,80.079,877.96)" d="m54575 149429h4875.4" fill-opacity="0"/>
  <path transform="matrix(7.1878e-4,0,0,7.1878e-4,80.079,877.96)" d="m54575 149429h2263.9" fill="none" stroke="#595959" class="fg-stroke" stroke-linejoin="round" stroke-miterlimit="8" stroke-width="762"/>
  <path transform="matrix(7.1878e-4,0,0,7.1878e-4,80.079,877.96)" d="m56839 149429-856.93 856.94 2354.4-856.94-2354.4-856.94z" fill="#595959" fill-rule="evenodd" stroke="#595959" class="fg-stroke" stroke-miterlimit="10" stroke-width="762"/>
  <path transform="matrix(.00086499 0 0 .00086499 -49.991 877.48)" d="m183362 121161c-656.11 0-1188.2 532.03-1188.2 1188.2v4751.8c0 656.1 532.01 1188.2 1188.2 1188.2h5963.8c656.11 0 1188.2-532.03 1188.2-1188.2v-4751.8c0-315.08-125.49-617.87-348.29-840.68-222.8-222.8-524.77-347.47-839.86-347.47zm7152 2478.4v2168.8l3240.8 2401.8v-6972.4z" fill="none" stroke="#1a1a1a" class="fg-stroke" stroke-width="843.15"/>
 </g>
</svg>
