<?xml version="1.0" encoding="UTF-8"?>
<svg width="335.94" height="369.47" version="1.1" viewBox="0 0 335.94 369.47" xmlns="http://www.w3.org/2000/svg">
  <style
     id="style1">
    @media (prefers-color-scheme: light) {
      tspan { fill: #333333; }
    }
    @media (prefers-color-scheme: dark) {
      tspan { fill: #dddddd; }
    }
 </style>
 <g transform="matrix(1.6641 0 0 1.6641 -76.178 -1267.1)">
  <path transform="matrix(.0015097 0 0 .0015097 -269.32 701.44)" d="m300225 151706h42204v18468h-42204z" fill-opacity="0"/>
  <text transform="matrix(.57521 0 0 .57521 189.12 948.9)" xml:space="preserve"><tspan x="0 13.344 31.992001 49.32" y="0" fill="#595959" font-family="'Artifakt Element'" font-size="24px">LOD 1</tspan></text>
  <path transform="matrix(.0015097 0 0 .0015097 -269.32 701.44)" d="m289843 109526h42204v18468h-42204z" fill-opacity="0"/>
  <text transform="matrix(.57521 0 0 .57521 173.44 885.22)" xml:space="preserve"><tspan x="0 13.344 31.992001 49.32" y="0" fill="#595959" font-family="'Artifakt Element'" font-size="24px">LOD 0</tspan></text>
  <g fill="#eee" fill-rule="evenodd" stroke="#595959" stroke-linejoin="round" stroke-miterlimit="8" stroke-width="381">
   <path transform="matrix(.0015097 0 0 .0015097 -269.32 701.44)" d="m214921 141151h7572v6492h-7572z"/>
   <path transform="matrix(.0015097 0 0 .0015097 -269.32 701.44)" d="m214921 149295h7572v6492h-7572z"/>
   <path transform="matrix(.0015097 0 0 .0015097 -269.32 701.44)" d="m214921 157440h7572v6492h-7572z"/>
   <path transform="matrix(.0015097 0 0 .0015097 -269.32 701.44)" d="m214921 165584h7572v6492h-7572z"/>
   <path transform="matrix(.0015097 0 0 .0015097 -269.32 701.44)" d="m248719 145222h7572v6492h-7572z"/>
   <path transform="matrix(.0015097 0 0 .0015097 -269.32 701.44)" d="m248719 153367h7572v6492h-7572z"/>
   <path transform="matrix(.0015097 0 0 .0015097 -269.32 701.44)" d="m248719 161511h7572v6492h-7572z"/>
   <path transform="matrix(.0015097 0 0 .0015097 -269.32 701.44)" d="m248719 169656h7572v6492h-7572z"/>
   <path transform="matrix(.0015097 0 0 .0015097 -269.32 701.44)" d="m246290 103041h7572v6492h-7572z"/>
   <path transform="matrix(.0015097 0 0 .0015097 -269.32 701.44)" d="m246290 111186h7572v6492h-7572z"/>
   <path transform="matrix(.0015097 0 0 .0015097 -269.32 701.44)" d="m246290 119330h7572v6492h-7572z"/>
   <path transform="matrix(.0015097 0 0 .0015097 -269.32 701.44)" d="m246290 127475h7572v6492h-7572z"/>
  </g>
  <g fill-opacity="0">
   <path transform="matrix(.0015097 0 0 .0015097 -269.32 701.44)" d="m246560 176146c-838.36 0-1518-679.62-1518-1518v-12426c0-838.36-679.63-1518-1518-1518 838.37 0 1518-679.62 1518-1518v-12426c0-838.36 679.64-1518 1518-1518z"/>
   <path transform="matrix(.0015097 0 0 .0015097 -269.32 701.44)" d="m246560 176146c-838.36 0-1518-679.62-1518-1518v-12426c0-838.36-679.63-1518-1518-1518 838.37 0 1518-679.62 1518-1518v-12426c0-838.36 679.64-1518 1518-1518" stroke="#595959" stroke-linejoin="round" stroke-miterlimit="8" stroke-width="381"/>
   <path transform="matrix(.0015097 0 0 .0015097 -269.32 701.44)" d="m243752 133965c-838.38 0-1518-679.64-1518-1518v-12426c0-838.37-679.64-1518-1518-1518 838.36 0 1518-679.63 1518-1518v-12426c0-838.37 679.62-1518 1518-1518z"/>
   <g stroke="#595959" stroke-linejoin="round" stroke-miterlimit="8" stroke-width="381">
    <path transform="matrix(.0015097 0 0 .0015097 -269.32 701.44)" d="m243752 133965c-838.38 0-1518-679.64-1518-1518v-12426c0-838.37-679.64-1518-1518-1518 838.36 0 1518-679.63 1518-1518v-12426c0-838.37 679.62-1518 1518-1518"/>
    <path transform="matrix(.0015097 0 0 .0015097 -269.32 701.44)" d="m222493 160686c5258.2 0 7886.8 6 10516 12s5259.8 12 10520 12"/>
    <path transform="matrix(.0015097 0 0 .0015097 -269.32 701.44)" d="m222493 152541c4555.8 0 6833.2-8511 9111.6-17022 2278.5-8511 4558.2-17022 9116.4-17022"/>
   </g>
   <path transform="matrix(.0015097 0 0 .0015097 -269.32 701.44)" d="m211941 172075c-838.38 0-1518-679.62-1518-1518v-12426c0-838.36-679.62-1518-1518-1518 838.38 0 1518-679.62 1518-1518v-12426c0-838.36 679.62-1518 1518-1518z"/>
   <path transform="matrix(.0015097 0 0 .0015097 -269.32 701.44)" d="m211941 172075c-838.38 0-1518-679.62-1518-1518v-12426c0-838.36-679.62-1518-1518-1518 838.38 0 1518-679.62 1518-1518v-12426c0-838.36 679.62-1518 1518-1518" stroke="#595959" stroke-linejoin="round" stroke-miterlimit="8" stroke-width="381"/>
  </g>
  <g fill-rule="evenodd" stroke="#595959" stroke-linejoin="round" stroke-miterlimit="8" stroke-width="381">
   <g fill="#ea9999">
    <path transform="matrix(.0015097 0 0 .0015097 -269.32 701.44)" d="m282508 143914h9464.7v4067.8h-9464.7z"/>
    <path transform="matrix(.0015097 0 0 .0015097 -269.32 701.44)" d="m282508 147935h9464.7v4067.8h-9464.7z"/>
    <path transform="matrix(.0015097 0 0 .0015097 -269.32 701.44)" d="m282508 151955h9464.7v4067.8h-9464.7z"/>
   </g>
   <g fill="#6d9eeb">
    <path transform="matrix(.0015097 0 0 .0015097 -269.32 701.44)" d="m274224 94200h9464.7v3110.8h-9464.7z"/>
    <path transform="matrix(.0015097 0 0 .0015097 -269.32 701.44)" d="m274224 97275h9464.7v3110.8h-9464.7z"/>
    <path transform="matrix(.0015097 0 0 .0015097 -269.32 701.44)" d="m274224 100349h9464.7v3110.8h-9464.7z"/>
    <path transform="matrix(.0015097 0 0 .0015097 -269.32 701.44)" d="m274224 103424h9464.7v3110.8h-9464.7z"/>
   </g>
   <g fill="#93c47d">
    <path transform="matrix(.0015097 0 0 .0015097 -269.32 701.44)" d="m274224 108923h9464.7v2985.6h-9464.7z"/>
    <path transform="matrix(.0015097 0 0 .0015097 -269.32 701.44)" d="m274224 111874h9464.7v2985.6h-9464.7z"/>
    <path transform="matrix(.0015097 0 0 .0015097 -269.32 701.44)" d="m274224 114825h9464.7v2985.6h-9464.7z"/>
    <path transform="matrix(.0015097 0 0 .0015097 -269.32 701.44)" d="m274224 117776h9464.7v2985.6h-9464.7z"/>
   </g>
  </g>
  <g stroke="#595959" stroke-linejoin="round" stroke-miterlimit="8" stroke-width="381">
   <g fill-opacity="0">
    <path transform="matrix(.0015097 0 0 .0015097 -269.32 701.44)" d="m253862 106287c5090.2 0 7634.9-1542 10180-3084s5091.8-3084 10184-3084"/>
    <path transform="matrix(.0015097 0 0 .0015097 -269.32 701.44)" d="m256291 148468c6558 0 9837 159 13116 318s6558 318 13116 318"/>
    <path transform="matrix(.0015097 0 0 .0015097 -269.32 701.44)" d="m253862 114432c5090.3 0 7635.1 471 10181 942s5091.7 942 10183 942"/>
    <path transform="matrix(.0015097 0 0 .0015097 -269.32 701.44)" d="m222493 168830c5334 0 8001 4446 10668 8892s5334 8892 10668 8892" stroke-dasharray="1524, 1143"/>
   </g>
   <g fill="#ffe599" fill-rule="evenodd">
    <path transform="matrix(.0015097 0 0 .0015097 -269.32 701.44)" d="m287455 162458h9464.7v3650.2h-9464.7z"/>
    <path transform="matrix(.0015097 0 0 .0015097 -269.32 701.44)" d="m287455 166066h9464.7v3650.2h-9464.7z"/>
    <path transform="matrix(.0015097 0 0 .0015097 -269.32 701.44)" d="m287455 169673h9464.7v3650.2h-9464.7z"/>
   </g>
   <path transform="matrix(.0015097 0 0 .0015097 -269.32 701.44)" d="m256291 156613c7794 0 11691 2577 15588 5154s7794 5154 15588 5154" fill-opacity="0"/>
   <g fill="#8e7cc3" fill-rule="evenodd">
    <path transform="matrix(.0015097 0 0 .0015097 -269.32 701.44)" d="m274221 123648h9464.7v2985.6h-9464.7z"/>
    <path transform="matrix(.0015097 0 0 .0015097 -269.32 701.44)" d="m274221 126599h9464.7v2985.6h-9464.7z"/>
    <path transform="matrix(.0015097 0 0 .0015097 -269.32 701.44)" d="m274221 129550h9464.7v2985.6h-9464.7z"/>
    <path transform="matrix(.0015097 0 0 .0015097 -269.32 701.44)" d="m274221 132501h9464.7v2985.6h-9464.7z"/>
   </g>
   <path transform="matrix(.0015097 0 0 .0015097 -269.32 701.44)" d="m253862 122576c5092.2 0 7638.9 2118 10184 4236s5089.8 4236 10180 4236" fill-opacity="0"/>
  </g>
  <g fill-rule="evenodd">
   <path transform="matrix(.0015097 0 0 .0015097 -269.32 701.44)" d="m287938 168184 948.68-1119.4 3307.7 2803.2 3307.6-2803.2 948.68 1119.4-3121.6 2645.5 3121.6 2645.5-948.68 1119.4-3307.6-2803.2-3307.7 2803.2-948.68-1119.4 3121.6-2645.5z" fill="#e06666"/>
   <path transform="matrix(.0015097 0 0 .0015097 -269.32 701.44)" d="m259785 112920 948.7-1119.4 3307.7 2803.2 3307.7-2803.2 948.7 1119.4-3121.6 2645.5 3121.6 2645.5-948.7 1119.4-3307.7-2803.2-3307.7 2803.2-948.7-1119.4 3121.6-2645.5z" fill="#3c78d8"/>
   <path transform="matrix(.0015097 0 0 .0015097 -269.32 701.44)" d="m259784 124163 948.7-1119.4 3307.7 2803.2 3307.7-2803.2 948.7 1119.4-3121.6 2645.5 3121.6 2645.5-948.7 1119.4-3307.7-2803.2-3307.7 2803.2-948.7-1119.4 3121.6-2645.5z" fill="#3c78d8"/>
  </g>
  <g fill-opacity="0" stroke="#000" stroke-linejoin="round" stroke-miterlimit="8" stroke-width="1143">
   <path transform="matrix(.0015097 0 0 .0015097 -269.32 701.44)" d="m287466 162458h9456v3852h-9456z"/>
   <path transform="matrix(.0015097 0 0 .0015097 -269.32 701.44)" d="m274229 94198h9456v11844h-9456z"/>
   <path transform="matrix(.0015097 0 0 .0015097 -269.32 701.44)" d="m282518 144058h9456v11844h-9456z"/>
  </g>
  <g fill-rule="evenodd" stroke="#595959" stroke-linejoin="round" stroke-miterlimit="8" stroke-width="381">
   <g fill="#8e7cc3">
    <path transform="matrix(.0015097 0 0 .0015097 -269.32 701.44)" d="m219147 77006h10152v8808h-10152z"/>
    <path transform="matrix(.0015097 0 0 .0015097 -269.32 701.44)" d="m229286 77006h10188v8808h-10188z"/>
    <path transform="matrix(.0015097 0 0 .0015097 -269.32 701.44)" d="m239482 77006h10188v8808h-10188z"/>
   </g>
   <g fill="#93c47d">
    <path transform="matrix(.0015097 0 0 .0015097 -269.32 701.44)" d="m249640 77006h10188v8808h-10188z"/>
    <path transform="matrix(.0015097 0 0 .0015097 -269.32 701.44)" d="m259797 77006h10188v8808h-10188z"/>
    <path transform="matrix(.0015097 0 0 .0015097 -269.32 701.44)" d="m269994 77006h10188v8808h-10188z"/>
    <path transform="matrix(.0015097 0 0 .0015097 -269.32 701.44)" d="m280191 77006h10188v8808h-10188z"/>
   </g>
   <g fill="#6d9eeb">
    <path transform="matrix(.0015097 0 0 .0015097 -269.32 701.44)" d="m290348 77006h10188v8808h-10188z"/>
    <path transform="matrix(.0015097 0 0 .0015097 -269.32 701.44)" d="m300506 77006h10188v8808h-10188z"/>
    <path transform="matrix(.0015097 0 0 .0015097 -269.32 701.44)" d="m310702 77006h10188v8808h-10188z"/>
    <path transform="matrix(.0015097 0 0 .0015097 -269.32 701.44)" d="m320899 77006h10188v8808h-10188z"/>
   </g>
   <g fill="#d9d9d9">
    <path transform="matrix(.0015097 0 0 .0015097 -269.32 701.44)" d="m208932 65026h23520v4956h-23520z"/>
    <path transform="matrix(.0015097 0 0 .0015097 -269.32 701.44)" d="m232456 65026h17220v4956h-17220z"/>
    <path transform="matrix(.0015097 0 0 .0015097 -269.32 701.44)" d="m249640 65026h17220v4956h-17220z"/>
    <path transform="matrix(.0015097 0 0 .0015097 -269.32 701.44)" d="m266863 65026h23520v4956h-23520z"/>
    <path transform="matrix(.0015097 0 0 .0015097 -269.32 701.44)" d="m290348 65026h27132v4956h-27132z"/>
    <path transform="matrix(.0015097 0 0 .0015097 -269.32 701.44)" d="m317486 65026h13608v4956h-13608z"/>
   </g>
   <g fill="#e06666">
    <path transform="matrix(.0015097 0 0 .0015097 -269.32 701.44)" d="m208932 43379h23520v8808h-23520z"/>
    <path transform="matrix(.0015097 0 0 .0015097 -269.32 701.44)" d="m232456 43379h17220v8808h-17220z"/>
    <path transform="matrix(.0015097 0 0 .0015097 -269.32 701.44)" d="m249640 43379h17220v8808h-17220z"/>
   </g>
   <g fill="#ffd966">
    <path transform="matrix(.0015097 0 0 .0015097 -269.32 701.44)" d="m266863 43379h23520v8808h-23520z"/>
    <path transform="matrix(.0015097 0 0 .0015097 -269.32 701.44)" d="m290348 43379h27132v8808h-27132z"/>
    <path transform="matrix(.0015097 0 0 .0015097 -269.32 701.44)" d="m317486 43379h13608v8808h-13608z"/>
   </g>
  </g>
  <g fill-opacity="0">
   <path transform="matrix(.0015097 0 0 .0015097 -269.32 701.44)" d="m330095 63733c0-589.84-478.16-1068-1068-1068h-16920c-589.84 0-1068-478.16-1068-1068 0 589.84-478.16 1068-1068 1068h-16920c-589.84 0-1068 478.16-1068 1068z"/>
   <path transform="matrix(.0015097 0 0 .0015097 -269.32 701.44)" d="m330095 63733c0-589.84-478.16-1068-1068-1068h-16920c-589.84 0-1068-478.16-1068-1068 0 589.84-478.16 1068-1068 1068h-16920c-589.84 0-1068 478.16-1068 1068" stroke="#595959" stroke-linejoin="round" stroke-miterlimit="8" stroke-width="381"/>
   <path transform="matrix(.0015097 0 0 .0015097 -269.32 701.44)" d="m289535 63733c0-589.84-478.14-1068-1068-1068h-17250c-589.83 0-1068-478.16-1068-1068 0 589.84-478.14 1068-1068 1068h-17250c-589.85 0-1068 478.16-1068 1068z"/>
   <path transform="matrix(.0015097 0 0 .0015097 -269.32 701.44)" d="m289535 63733c0-589.84-478.14-1068-1068-1068h-17250c-589.83 0-1068-478.16-1068-1068 0 589.84-478.14 1068-1068 1068h-17250c-589.85 0-1068 478.16-1068 1068" stroke="#595959" stroke-linejoin="round" stroke-miterlimit="8" stroke-width="381"/>
   <path transform="matrix(.0015097 0 0 .0015097 -269.32 701.44)" d="m249023 63733c0-589.84-478.15-1068-1068-1068h-17238c-589.84 0-1068-478.16-1068-1068 0 589.84-478.15 1068-1068 1068h-17238c-589.84 0-1068 478.16-1068 1068z"/>
   <path transform="matrix(.0015097 0 0 .0015097 -269.32 701.44)" d="m249023 63733c0-589.84-478.15-1068-1068-1068h-17238c-589.84 0-1068-478.16-1068-1068 0 589.84-478.15 1068-1068 1068h-17238c-589.84 0-1068 478.16-1068 1068" stroke="#595959" stroke-linejoin="round" stroke-miterlimit="8" stroke-width="381"/>
   <path transform="matrix(.0015097 0 0 .0015097 -269.32 701.44)" d="m267520 53612c0 589.84 478.15 1068 1068 1068h28962c589.84 0 1068 478.16 1068 1068 0-589.84 478.15-1068 1068-1068h28962c589.84 0 1068-478.16 1068-1068z"/>
   <path transform="matrix(.0015097 0 0 .0015097 -269.32 701.44)" d="m267520 53612c0 589.84 478.15 1068 1068 1068h28962c589.84 0 1068 478.16 1068 1068 0-589.84 478.15-1068 1068-1068h28962c589.84 0 1068-478.16 1068-1068" stroke="#f1c232" stroke-linejoin="round" stroke-miterlimit="8" stroke-width="381"/>
   <path transform="matrix(.0015097 0 0 .0015097 -269.32 701.44)" d="m209359 53612c0 589.84 478.16 1068 1068 1068h25626c589.85 0 1068 478.16 1068 1068 0-589.84 478.16-1068 1068-1068h25626c589.83 0 1068-478.16 1068-1068z"/>
   <path transform="matrix(.0015097 0 0 .0015097 -269.32 701.44)" d="m209359 53612c0 589.84 478.16 1068 1068 1068h25626c589.85 0 1068 478.16 1068 1068 0-589.84 478.16-1068 1068-1068h25626c589.83 0 1068-478.16 1068-1068" stroke="#c00" stroke-linejoin="round" stroke-miterlimit="8" stroke-width="381"/>
   <g stroke="#595959" stroke-linejoin="round" stroke-miterlimit="8" stroke-width="381">
    <g stroke-dasharray="1524, 1143">
     <path transform="matrix(.0015097 0 0 .0015097 -269.32 701.44)" d="m311039 61597c0-1460.1-3105-2189.6-6210-2920.1s-6210-1461.9-6210-2923.9"/>
     <path transform="matrix(.0015097 0 0 .0015097 -269.32 701.44)" d="m270149 61597c0-1460.1 7116-2189.6 14232-2920.1s14232-1461.9 14232-2923.9"/>
     <path transform="matrix(.0015097 0 0 .0015097 -269.32 701.44)" d="m270149 61597c0-1460.1-8256-2189.6-16512-2920.1s-16512-1461.9-16512-2923.9"/>
     <path transform="matrix(.0015097 0 0 .0015097 -269.32 701.44)" d="m229649 61597c0-1460.1 1869-2189.6 3738-2920.1s3738-1461.9 3738-2923.9"/>
    </g>
    <g stroke-dasharray="381, 1143">
     <path transform="matrix(.0015097 0 0 .0015097 -269.32 701.44)" d="m220692 69982 13692 7020"/>
     <path transform="matrix(.0015097 0 0 .0015097 -269.32 701.44)" d="m220692 69982 23880 7020"/>
     <path transform="matrix(.0015097 0 0 .0015097 -269.32 701.44)" d="m241066 69982-26196 7044"/>
     <path transform="matrix(.0015097 0 0 .0015097 -269.32 701.44)" d="m241066 69982-16848 7020"/>
     <path transform="matrix(.0015097 0 0 .0015097 -269.32 701.44)" d="m241066 69982-6684 7020"/>
     <path transform="matrix(.0015097 0 0 .0015097 -269.32 701.44)" d="m241066 69982 3516 7020"/>
     <path transform="matrix(.0015097 0 0 .0015097 -269.32 701.44)" d="m258250 69982-3516 7020"/>
     <path transform="matrix(.0015097 0 0 .0015097 -269.32 701.44)" d="m258250 69982 6636 7020"/>
     <path transform="matrix(.0015097 0 0 .0015097 -269.32 701.44)" d="m258250 69982 16836 7020"/>
     <path transform="matrix(.0015097 0 0 .0015097 -269.32 701.44)" d="m258250 69982 27036 7020"/>
     <path transform="matrix(.0015097 0 0 .0015097 -269.32 701.44)" d="m278623 69982-23892 7020"/>
     <path transform="matrix(.0015097 0 0 .0015097 -269.32 701.44)" d="m278623 69982-13728 7020"/>
     <path transform="matrix(.0015097 0 0 .0015097 -269.32 701.44)" d="m278623 69982-3540 7020"/>
     <path transform="matrix(.0015097 0 0 .0015097 -269.32 701.44)" d="m278623 69982 6660 7020"/>
     <path transform="matrix(.0015097 0 0 .0015097 -269.32 701.44)" d="m303914 69982-8472 7020"/>
     <path transform="matrix(.0015097 0 0 .0015097 -269.32 701.44)" d="m303914 69982 1680 7020"/>
     <path transform="matrix(.0015097 0 0 .0015097 -269.32 701.44)" d="m303914 69982 11880 7020"/>
     <path transform="matrix(.0015097 0 0 .0015097 -269.32 701.44)" d="m303914 69982 22080 7020"/>
     <path transform="matrix(.0015097 0 0 .0015097 -269.32 701.44)" d="m324290 69982-28848 7020"/>
     <path transform="matrix(.0015097 0 0 .0015097 -269.32 701.44)" d="m324290 69982-18684 7020"/>
     <path transform="matrix(.0015097 0 0 .0015097 -269.32 701.44)" d="m324290 69982-8496 7020"/>
     <path transform="matrix(.0015097 0 0 .0015097 -269.32 701.44)" d="m324290 69982 1704 7020"/>
    </g>
   </g>
  </g>
  <g stroke="#595959" stroke-linejoin="round" stroke-miterlimit="8" stroke-width="381">
   <path transform="matrix(.0015097 0 0 .0015097 -269.32 701.44)" d="m208905 77006h10152v8808h-10152z" fill="#8e7cc3" fill-rule="evenodd"/>
   <path transform="matrix(.0015097 0 0 .0015097 -269.32 701.44)" d="m220692 69982-6708 7020" fill-opacity="0" stroke-dasharray="381, 1143"/>
   <g fill="#a4c2f4" fill-rule="evenodd">
    <path transform="matrix(.0015097 0 0 .0015097 -269.32 701.44)" d="m301102 83263 1841-3154.7 1870.6 1452.7z"/>
    <path transform="matrix(.0015097 0 0 .0015097 -269.32 701.44)" d="m301102 83263 3710.3-1700.6 2436.4 849.86z"/>
    <path transform="matrix(.0015097 0 0 .0015097 -269.32 701.44)" d="m302943 80108 4246.5-477.34-2375.9 1930.5z"/>
    <path transform="matrix(.0015097 0 0 .0015097 -269.32 701.44)" d="m307189 79631 2939.8 954.69-5315.7 975.38z"/>
    <path transform="matrix(.0015097 0 0 .0015097 -269.32 701.44)" d="m304814 81561 5315-975.39-2879.9 1826.6z"/>
   </g>
  </g>
  <path transform="matrix(.0015097 0 0 .0015097 -269.32 701.44)" d="m209064 40315c4954.6 70.246 17055-69.332 29728 421.47 12672 490.8 37323-2423.2 46306 2523.4 8982.8 4946.6-590.03 21942 7591 27156 8181 5214.2 34579 3440.9 41495 4129.1" fill-opacity="0" stroke="#c00" stroke-linejoin="round" stroke-miterlimit="8" stroke-width="1143"/>
 </g>
</svg>
