<?xml version="1.0" encoding="UTF-8"?>
<svg width="464.89" height="323.14" version="1.1" viewBox="0 0 464.89 323.14" xmlns="http://www.w3.org/2000/svg">
  <style
     id="style1">
    @media (prefers-color-scheme: light) {
      .fade { fill: #eeeeee; fill-opacity: 0.3 }
    }
    @media (prefers-color-scheme: dark) {
      .fade { fill: #202020; fill-opacity: 0.5 }
    }
 </style>
 <g transform="matrix(1.7389 0 0 1.7389 -79.494 -1479.5)">
  <g fill-rule="evenodd" stroke="#595959" stroke-linejoin="round" stroke-miterlimit="8" stroke-width="381">
   <path transform="matrix(.0011476 0 0 .0011476 24.704 816.26)" d="m27273 54342h43728v13500h-43728z" fill="#a2c4c9"/>
   <g fill="#d9d9d9">
    <path transform="matrix(.0011476 0 0 .0011476 24.704 816.26)" d="m27272 87382h43728v7596h-43728z"/>
    <path transform="matrix(.0011476 0 0 .0011476 24.704 816.26)" d="m70954 87382h21708v7596h-21708z"/>
    <path transform="matrix(.0011476 0 0 .0011476 24.704 816.26)" d="m92659 87382h39348v7596h-39348z"/>
    <path transform="matrix(.0011476 0 0 .0011476 24.704 816.26)" d="m131974 87382h33180v7596h-33180z"/>
   </g>
   <path transform="matrix(.0011476 0 0 .0011476 24.704 816.26)" d="m131970 54342h33180v13500h-33180z" fill="#a2c4c9"/>
   <g fill="#8e7cc3">
    <path transform="matrix(.0011476 0 0 .0011476 24.704 816.26)" d="m38802 157594h11448v13500h-11448z"/>
    <path transform="matrix(.0011476 0 0 .0011476 24.704 816.26)" d="m50245 157594h11508v13500h-11508z"/>
    <path transform="matrix(.0011476 0 0 .0011476 24.704 816.26)" d="m61754 157594h11508v13500h-11508z"/>
   </g>
   <g fill="#93c47d">
    <path transform="matrix(.0011476 0 0 .0011476 24.704 816.26)" d="m73219 157594h11508v13500h-11508z"/>
    <path transform="matrix(.0011476 0 0 .0011476 24.704 816.26)" d="m84684 157594h11508v13500h-11508z"/>
    <path transform="matrix(.0011476 0 0 .0011476 24.704 816.26)" d="m96193 157594h11508v13500h-11508z"/>
    <path transform="matrix(.0011476 0 0 .0011476 24.704 816.26)" d="m107702 157594h11508v13500h-11508z"/>
   </g>
   <g fill="#6d9eeb">
    <path transform="matrix(.0011476 0 0 .0011476 24.704 816.26)" d="m119166 157594h11508v13500h-11508z"/>
    <path transform="matrix(.0011476 0 0 .0011476 24.704 816.26)" d="m130631 157594h11508v13500h-11508z"/>
    <path transform="matrix(.0011476 0 0 .0011476 24.704 816.26)" d="m142140 157594h11508v13500h-11508z"/>
    <path transform="matrix(.0011476 0 0 .0011476 24.704 816.26)" d="m153649 157594h11508v13500h-11508z"/>
   </g>
   <g fill="#d9d9d9">
    <path transform="matrix(.0011476 0 0 .0011476 24.704 816.26)" d="m27272 139221h26556v7596h-26556z"/>
    <path transform="matrix(.0011476 0 0 .0011476 24.704 816.26)" d="m53824 139221h19440v7596h-19440z"/>
    <path transform="matrix(.0011476 0 0 .0011476 24.704 816.26)" d="m73219 139221h19440v7596h-19440z"/>
    <path transform="matrix(.0011476 0 0 .0011476 24.704 816.26)" d="m92659 139221h26556v7596h-26556z"/>
    <path transform="matrix(.0011476 0 0 .0011476 24.704 816.26)" d="m119166 139221h30624v7596h-30624z"/>
    <path transform="matrix(.0011476 0 0 .0011476 24.704 816.26)" d="m149796 139221h15360v7596h-15360z"/>
   </g>
   <g fill="#e06666">
    <path transform="matrix(.0011476 0 0 .0011476 24.704 816.26)" d="m27272 106022h26556v13500h-26556z"/>
    <path transform="matrix(.0011476 0 0 .0011476 24.704 816.26)" d="m53824 106022h19440v13500h-19440z"/>
    <path transform="matrix(.0011476 0 0 .0011476 24.704 816.26)" d="m73219 106022h19440v13500h-19440z"/>
   </g>
   <g fill="#ffd966">
    <path transform="matrix(.0011476 0 0 .0011476 24.704 816.26)" d="m92659 106022h26556v13500h-26556z"/>
    <path transform="matrix(.0011476 0 0 .0011476 24.704 816.26)" d="m119166 106022h30624v13500h-30624z"/>
    <path transform="matrix(.0011476 0 0 .0011476 24.704 816.26)" d="m149796 106022h15360v13500h-15360z"/>
   </g>
  </g>
  <g fill-opacity="0">
   <path transform="matrix(.0011476 0 0 .0011476 24.704 816.26)" d="m164032 137238c0-904.65-733.35-1638-1638-1638h-18234c-904.64 0-1638-733.36-1638-1638 0 904.64-733.35 1638-1638 1638h-18234c-904.64 0-1638 733.35-1638 1638z"/>
   <path transform="matrix(.0011476 0 0 .0011476 24.704 816.26)" d="m164032 137238c0-904.65-733.35-1638-1638-1638h-18234c-904.64 0-1638-733.36-1638-1638 0 904.64-733.35 1638-1638 1638h-18234c-904.64 0-1638 733.35-1638 1638" stroke="#595959" stroke-linejoin="round" stroke-miterlimit="8" stroke-width="381"/>
   <path transform="matrix(.0011476 0 0 .0011476 24.704 816.26)" d="m118227 137238c0-904.65-733.36-1638-1638-1638h-18594c-904.64 0-1638-733.36-1638-1638 0 904.64-733.35 1638-1638 1638h-18594c-904.64 0-1638 733.35-1638 1638z"/>
   <path transform="matrix(.0011476 0 0 .0011476 24.704 816.26)" d="m118227 137238c0-904.65-733.36-1638-1638-1638h-18594c-904.64 0-1638-733.36-1638-1638 0 904.64-733.35 1638-1638 1638h-18594c-904.64 0-1638 733.35-1638 1638" stroke="#595959" stroke-linejoin="round" stroke-miterlimit="8" stroke-width="381"/>
   <path transform="matrix(.0011476 0 0 .0011476 24.704 816.26)" d="m72516 137238c0-904.65-733.36-1638-1638-1638h-18588c-904.64 0-1638-733.36-1638-1638 0 904.64-733.36 1638-1638 1638h-18588c-904.64 0-1638 733.35-1638 1638z"/>
   <path transform="matrix(.0011476 0 0 .0011476 24.704 816.26)" d="m72516 137238c0-904.65-733.36-1638-1638-1638h-18588c-904.64 0-1638-733.36-1638-1638 0 904.64-733.36 1638-1638 1638h-18588c-904.64 0-1638 733.35-1638 1638" stroke="#595959" stroke-linejoin="round" stroke-miterlimit="8" stroke-width="381"/>
   <path transform="matrix(.0011476 0 0 .0011476 24.704 816.26)" d="m93401 121715c0 904.65 733.36 1638 1638 1638h31824c904.65 0 1638 733.36 1638 1638 0-904.64 733.36-1638 1638-1638h31824c904.64 0 1638-733.35 1638-1638z"/>
   <path transform="matrix(.0011476 0 0 .0011476 24.704 816.26)" d="m93401 121715c0 904.65 733.36 1638 1638 1638h31824c904.65 0 1638 733.36 1638 1638 0-904.64 733.36-1638 1638-1638h31824c904.64 0 1638-733.35 1638-1638" stroke="#f1c232" stroke-linejoin="round" stroke-miterlimit="8" stroke-width="381"/>
   <path transform="matrix(.0011476 0 0 .0011476 24.704 816.26)" d="m27761 121715c0 904.65 733.36 1638 1638 1638h28056c904.64 0 1638 733.36 1638 1638 0-904.64 733.36-1638 1638-1638h28056c904.64 0 1638-733.35 1638-1638z"/>
   <path transform="matrix(.0011476 0 0 .0011476 24.704 816.26)" d="m27761 121715c0 904.65 733.36 1638 1638 1638h28056c904.64 0 1638 733.36 1638 1638 0-904.64 733.36-1638 1638-1638h28056c904.64 0 1638-733.35 1638-1638" stroke="#c00" stroke-linejoin="round" stroke-miterlimit="8" stroke-width="381"/>
   <g stroke="#595959" stroke-dasharray="1524, 1143" stroke-linejoin="round" stroke-miterlimit="8" stroke-width="381">
    <path transform="matrix(.0011476 0 0 .0011476 24.704 816.26)" d="m142522 133962c0-2242.6-3504-3363.1-7008-4485.1s-7008-2245.4-7008-4490.9"/>
    <path transform="matrix(.0011476 0 0 .0011476 24.704 816.26)" d="m96357 133962c0-2242.6 8037-3363.1 16074-4485.1s16074-2245.4 16074-4490.9"/>
    <path transform="matrix(.0011476 0 0 .0011476 24.704 816.26)" d="m96357 133962c0-2242.6-9315-3363.1-18630-4485.1s-18630-2245.4-18630-4490.9"/>
    <path transform="matrix(.0011476 0 0 .0011476 24.704 816.26)" d="m50652 133962c0-2242.6 2109-3363.1 4218-4485.1s4218-2245.4 4218-4490.9"/>
   </g>
  </g>
  <path transform="matrix(.0011476 0 0 .0011476 24.704 816.26)" d="m92705 54341h39348v13500h-39348z" fill="#a2c4c9" fill-rule="evenodd" stroke="#595959" stroke-linejoin="round" stroke-miterlimit="8" stroke-width="381"/>
  <path transform="matrix(.0011476 0 0 .0011476 24.704 816.26)" d="m70998 54341h21708v13500h-21708z" fill="#a2c4c9" fill-rule="evenodd" stroke="#595959" stroke-linejoin="round" stroke-miterlimit="8" stroke-width="381"/>
  <g fill-opacity="0">
   <path transform="matrix(.0011476 0 0 .0011476 24.704 816.26)" d="m164465 85201c0-904.64-733.36-1638-1638-1638h-32094c-904.64 0-1638-733.35-1638-1638 0 904.65-733.35 1638-1638 1638h-32094c-904.64 0-1638 733.36-1638 1638z"/>
   <path transform="matrix(.0011476 0 0 .0011476 24.704 816.26)" d="m164465 85201c0-904.64-733.36-1638-1638-1638h-32094c-904.64 0-1638-733.35-1638-1638 0 904.65-733.35 1638-1638 1638h-32094c-904.64 0-1638 733.36-1638 1638" stroke="#595959" stroke-linejoin="round" stroke-miterlimit="8" stroke-width="381"/>
   <path transform="matrix(.0011476 0 0 .0011476 24.704 816.26)" d="m91855 85201c0-904.64-733.36-1638-1638-1638h-28560c-904.65 0-1638-733.35-1638-1638 0 904.65-733.36 1638-1638 1638h-28560c-904.64 0-1638 733.36-1638 1638z"/>
   <path transform="matrix(.0011476 0 0 .0011476 24.704 816.26)" d="m91855 85201c0-904.64-733.36-1638-1638-1638h-28560c-904.65 0-1638-733.35-1638-1638 0 904.65-733.36 1638-1638 1638h-28560c-904.64 0-1638 733.36-1638 1638" stroke="#595959" stroke-linejoin="round" stroke-miterlimit="8" stroke-width="381"/>
   <path transform="matrix(.0011476 0 0 .0011476 24.704 816.26)" d="m28793 69649c0 904.64 733.36 1638 1638 1638h64386c904.64 0 1638 733.36 1638 1638 0-904.64 733.36-1638 1638-1638h64386c904.64 0 1638-733.36 1638-1638z"/>
   <path transform="matrix(.0011476 0 0 .0011476 24.704 816.26)" d="m28793 69649c0 904.64 733.36 1638 1638 1638h64386c904.64 0 1638 733.36 1638 1638 0-904.64 733.36-1638 1638-1638h64386c904.64 0 1638-733.36 1638-1638" stroke="#45818e" stroke-linejoin="round" stroke-miterlimit="8" stroke-width="381"/>
   <g stroke="#595959" stroke-linejoin="round" stroke-miterlimit="8" stroke-width="381">
    <path transform="matrix(.0011476 0 0 .0011476 24.704 816.26)" d="m129095 81925c0-2250.1-8160-3375.3-16320-4500.3s-16320-2249.9-16320-4499.7" stroke-dasharray="1524, 1143"/>
    <path transform="matrix(.0011476 0 0 .0011476 24.704 816.26)" d="m60019 81925c0-2250.1 9108-3375.3 18216-4500.3s18216-2249.9 18216-4499.7" stroke-dasharray="1524, 1143"/>
    <g stroke-dasharray="381, 1143">
     <path transform="matrix(.0011476 0 0 .0011476 24.704 816.26)" d="m40550 146817 15444 10776"/>
     <path transform="matrix(.0011476 0 0 .0011476 24.704 816.26)" d="m40550 146817 26964 10776"/>
     <path transform="matrix(.0011476 0 0 .0011476 24.704 816.26)" d="m63544 146817-29568 10788"/>
     <path transform="matrix(.0011476 0 0 .0011476 24.704 816.26)" d="m63544 146817-19020 10776"/>
     <path transform="matrix(.0011476 0 0 .0011476 24.704 816.26)" d="m63544 146817-7548 10776"/>
     <path transform="matrix(.0011476 0 0 .0011476 24.704 816.26)" d="m63544 146817 3960 10776"/>
     <path transform="matrix(.0011476 0 0 .0011476 24.704 816.26)" d="m82939 146817-3972 10776"/>
     <path transform="matrix(.0011476 0 0 .0011476 24.704 816.26)" d="m82939 146817 7500 10776"/>
     <path transform="matrix(.0011476 0 0 .0011476 24.704 816.26)" d="m82939 146817 19008 10776"/>
     <path transform="matrix(.0011476 0 0 .0011476 24.704 816.26)" d="m82939 146817 30516 10776"/>
     <path transform="matrix(.0011476 0 0 .0011476 24.704 816.26)" d="m105937 146817-26964 10776"/>
     <path transform="matrix(.0011476 0 0 .0011476 24.704 816.26)" d="m105937 146817-15504 10776"/>
     <path transform="matrix(.0011476 0 0 .0011476 24.704 816.26)" d="m105937 146817-3984 10776"/>
     <path transform="matrix(.0011476 0 0 .0011476 24.704 816.26)" d="m105937 146817 7524 10776"/>
     <path transform="matrix(.0011476 0 0 .0011476 24.704 816.26)" d="m134478 146817-9552 10776"/>
     <path transform="matrix(.0011476 0 0 .0011476 24.704 816.26)" d="m134478 146817 1908 10776"/>
     <path transform="matrix(.0011476 0 0 .0011476 24.704 816.26)" d="m134478 146817 13416 10776"/>
     <path transform="matrix(.0011476 0 0 .0011476 24.704 816.26)" d="m134478 146817 24924 10776"/>
     <path transform="matrix(.0011476 0 0 .0011476 24.704 816.26)" d="m157476 146817-32556 10776"/>
     <path transform="matrix(.0011476 0 0 .0011476 24.704 816.26)" d="m157476 146817-21096 10776"/>
     <path transform="matrix(.0011476 0 0 .0011476 24.704 816.26)" d="m157476 146817-9588 10776"/>
     <path transform="matrix(.0011476 0 0 .0011476 24.704 816.26)" d="m157476 146817 1932 10776"/>
     <path transform="matrix(.0011476 0 0 .0011476 24.704 816.26)" d="m49136 94978-8580 11040"/>
     <path transform="matrix(.0011476 0 0 .0011476 24.704 816.26)" d="m49136 94978 14412 11040"/>
     <path transform="matrix(.0011476 0 0 .0011476 24.704 816.26)" d="m49136 94978 33804 11040"/>
     <path transform="matrix(.0011476 0 0 .0011476 24.704 816.26)" d="m81808 94978-41256 11040"/>
     <path transform="matrix(.0011476 0 0 .0011476 24.704 816.26)" d="m81808 94978-18264 11040"/>
     <path transform="matrix(.0011476 0 0 .0011476 24.704 816.26)" d="m81808 94978 1128 11040"/>
     <path transform="matrix(.0011476 0 0 .0011476 24.704 816.26)" d="m112333 94978-6396 11040"/>
     <path transform="matrix(.0011476 0 0 .0011476 24.704 816.26)" d="m112333 94978 22140 11040"/>
     <path transform="matrix(.0011476 0 0 .0011476 24.704 816.26)" d="m112333 94978 45144 11040"/>
     <path transform="matrix(.0011476 0 0 .0011476 24.704 816.26)" d="m148564 94978-42624 11040"/>
     <path transform="matrix(.0011476 0 0 .0011476 24.704 816.26)" d="m148564 94978-14088 11040"/>
     <path transform="matrix(.0011476 0 0 .0011476 24.704 816.26)" d="m148564 94978 8916 11040"/>
    </g>
   </g>
  </g>
  <g stroke="#595959" stroke-linejoin="round" stroke-miterlimit="8" stroke-width="381">
   <path transform="matrix(.0011476 0 0 .0011476 24.704 816.26)" d="m87107 37513h78084v7596h-78084z" fill="#d9d9d9" fill-rule="evenodd"/>
   <path transform="matrix(.0011476 0 0 .0011476 24.704 816.26)" d="m27272 37513h60048v7596h-60048z" fill="#d9d9d9" fill-rule="evenodd"/>
   <g fill-opacity="0">
    <path transform="matrix(.0011476 0 0 .0011476 24.704 816.26)" d="m57296 45109-8160 9228"/>
    <path transform="matrix(.0011476 0 0 .0011476 24.704 816.26)" d="m57296 45109 24552 9228"/>
    <path transform="matrix(.0011476 0 0 .0011476 24.704 816.26)" d="m57296 45109 55080 9228"/>
    <path transform="matrix(.0011476 0 0 .0011476 24.704 816.26)" d="m57296 45109 91260 9228"/>
    <path transform="matrix(.0011476 0 0 .0011476 24.704 816.26)" d="m126149 45109-77016 9228"/>
    <path transform="matrix(.0011476 0 0 .0011476 24.704 816.26)" d="m126149 45109-44292 9228"/>
    <path transform="matrix(.0011476 0 0 .0011476 24.704 816.26)" d="m126149 45109-13764 9228"/>
    <path transform="matrix(.0011476 0 0 .0011476 24.704 816.26)" d="m126149 45109 22416 9228"/>
   </g>
   <g fill="#a4c2f4" fill-rule="evenodd">
    <path transform="matrix(.0011476 0 0 .0011476 24.704 816.26)" d="m131312 167192 2078.1-4838.3 2111.5 2228z"/>
    <path transform="matrix(.0011476 0 0 .0011476 24.704 816.26)" d="m131312 167192 4188.1-2608.2 2750.2 1303.4z"/>
    <path transform="matrix(.0011476 0 0 .0011476 24.704 816.26)" d="m133391 162354 4793.4-732.09-2681.9 2960.8z"/>
    <path transform="matrix(.0011476 0 0 .0011476 24.704 816.26)" d="m138184 161621 3318.4 1464.2-6000.3 1495.9z"/>
    <path transform="matrix(.0011476 0 0 .0011476 24.704 816.26)" d="m135502 164582 5999.5-1495.9-3250.8 2801.4z"/>
   </g>
   <path transform="matrix(.0011476 0 0 .0011476 24.704 816.26)" d="m27242 157594h11448v13500h-11448z" fill="#8e7cc3" fill-rule="evenodd"/>
   <path transform="matrix(.0011476 0 0 .0011476 24.704 816.26)" d="m40550 146817-7584 10776" fill-opacity="0" stroke-dasharray="381, 1143"/>
  </g>
  <path transform="matrix(.0011476 0 0 .0011476 24.704 816.26)" d="m18308 30105h153348v161928h-153348z" fill="#fff" fill-opacity=".2848" fill-rule="evenodd" class="fade"/>
  <g fill-opacity="0" stroke-linejoin="round" stroke-miterlimit="8">
   <g stroke-width="762">
    <path transform="matrix(.0011476 0 0 .0011476 24.704 816.26)" d="m25431 34332c3203.2 2334.7-589.5 11704 19219 14008s78825-2347.2 99632-185 20787-7075.2 25210 13158c4422.7 20233 1105 90201 1326 108241" stroke="#f4cccc"/>
    <path transform="matrix(.0011476 0 0 .0011476 24.704 816.26)" d="m249086 50408c0 3907.6-3167.7 7075.3-7075.3 7075.3-1876.5 0-3676.1-745.43-5003-2072.3-1326.9-1326.9-2072.3-3126.5-2072.3-5003 0-3907.6 3167.7-7075.3 7075.3-7075.3s7075.3 3167.7 7075.3 7075.3z" stroke="#ea9999"/>
    <path transform="matrix(.0011476 0 0 .0011476 24.704 816.26)" d="m250025 50407c0 7509.5-6087.7 13597-13597 13597-3606.2 0-7064.7-1432.6-9614.6-3982.5-2550-2550-3982.5-6008.5-3982.5-9614.6 0-7509.5 6087.7-13597 13597-13597 7509.5 0 13597 6087.7 13597 13597z" stroke="#76a5af"/>
   </g>
   <path transform="matrix(.0011476 0 0 .0011476 24.704 816.26)" d="m196137 50409 53887-16850" stroke="#f00" stroke-dasharray="381, 1143" stroke-width="381"/>
   <path transform="matrix(.0011476 0 0 .0011476 24.704 816.26)" d="m243336 50410c0 5424.9-4397.7 9822.6-9822.6 9822.6-2605.1 0-5103.6-1034.9-6945.6-2877-1842.1-1842.1-2877-4340.5-2877-6945.6 0-5424.9 4397.7-9822.6 9822.6-9822.6s9822.6 4397.7 9822.6 9822.6z" stroke="#ffd966" stroke-width="762"/>
   <path transform="matrix(.0011476 0 0 .0011476 24.704 816.26)" d="m233633 50415c0 2693.7-2185.5 4877.5-4881.5 4877.5-1294.6 0-2536.2-513.88-3451.7-1428.6-915.45-914.7-1429.8-2155.3-1429.8-3448.9 0-2693.7 2185.5-4877.5 4881.4-4877.5 2696 0 4881.5 2183.7 4881.5 4877.5z" stroke="#3c78d8" stroke-width="762"/>
   <path transform="matrix(.0011476 0 0 .0011476 24.704 816.26)" d="m196137 50409 53887 16850" stroke="#f00" stroke-dasharray="381, 1143" stroke-width="381"/>
   <g stroke-width="762">
    <path transform="matrix(.0011476 0 0 .0011476 24.704 816.26)" d="m242090 50414c0 1713-1388.7 3101.7-3101.7 3101.7-822.61 0-1611.5-326.78-2193.2-908.46-581.69-581.68-908.47-1370.6-908.47-2193.2 0-1713 1388.7-3101.7 3101.7-3101.7s3101.7 1388.7 3101.7 3101.7z" stroke="#b6d7a8"/>
    <path transform="matrix(.0011476 0 0 .0011476 24.704 816.26)" d="m248483 50405c0 1963.7-1591.9 3555.6-3555.6 3555.6-943 0-1847.4-374.61-2514.2-1041.4-666.8-666.8-1041.4-1571.2-1041.4-2514.2 0-1963.7 1591.9-3555.6 3555.6-3555.6s3555.6 1591.9 3555.6 3555.6z" stroke="#b4a7d6"/>
    <path transform="matrix(.0011476 0 0 .0011476 24.704 816.26)" d="m23842 35079c2131 2475.3 1162.3 11795 12786 14852 11624 3056.7 46602-4046 56956 3488s278.16 33990 5167 41716c4888.8 7726.5 13548 3478 24166 4643s31990-843 39544 2347 4643.3 5370.3 5778 16793 858.33 43119 1030 51743" stroke="#ea9999"/>
    <path transform="matrix(.0011476 0 0 .0011476 24.704 816.26)" d="m241757 87562c0 3907.6-3167.7 7075.3-7075.3 7075.3-1876.5 0-3676.1-745.43-5003-2072.3-1326.9-1326.9-2072.3-3126.5-2072.3-5003 0-3907.6 3167.7-7075.3 7075.3-7075.3s7075.3 3167.7 7075.3 7075.3z" stroke="#ea9999"/>
    <path transform="matrix(.0011476 0 0 .0011476 24.704 816.26)" d="m242695 87562c0 7509.5-6087.7 13597-13597 13597-3606.2 0-7064.7-1432.6-9614.6-3982.5-2550-2550-3982.5-6008.5-3982.5-9614.6 0-7509.5 6087.6-13597 13597-13597s13597 6087.7 13597 13597z" stroke="#76a5af"/>
   </g>
   <path transform="matrix(.0011476 0 0 .0011476 24.704 816.26)" d="m197321 87563 53887-16850" stroke="#f00" stroke-dasharray="381, 1143" stroke-width="381"/>
   <path transform="matrix(.0011476 0 0 .0011476 24.704 816.26)" d="m236006 87565c0 5424.9-4397.7 9822.6-9822.6 9822.6-2605.1 0-5103.6-1034.9-6945.6-2877-1842.1-1842.1-2877-4340.5-2877-6945.6 0-5424.9 4397.7-9822.6 9822.6-9822.6s9822.6 4397.7 9822.6 9822.6z" stroke="#ffd966" stroke-width="762"/>
   <path transform="matrix(.0011476 0 0 .0011476 24.704 816.26)" d="m226303 87570c0 2693.7-2185.5 4877.4-4881.4 4877.4-1294.6 0-2536.2-513.87-3451.7-1428.6-915.44-914.7-1429.7-2155.3-1429.7-3448.9 0-2693.8 2185.5-4877.5 4881.4-4877.5 2696 0 4881.4 2183.7 4881.4 4877.5z" stroke="#3c78d8" stroke-width="762"/>
   <path transform="matrix(.0011476 0 0 .0011476 24.704 816.26)" d="m197321 87563 53887 16850" stroke="#f00" stroke-dasharray="381, 1143" stroke-width="381"/>
   <g stroke-width="762">
    <path transform="matrix(.0011476 0 0 .0011476 24.704 816.26)" d="m234760 87569c0 1713-1388.7 3101.7-3101.7 3101.7-822.61 0-1611.5-326.78-2193.2-908.46-581.67-581.68-908.45-1370.6-908.45-2193.2 0-1713 1388.7-3101.7 3101.7-3101.7s3101.7 1388.7 3101.7 3101.7z" stroke="#b6d7a8"/>
    <path transform="matrix(.0011476 0 0 .0011476 24.704 816.26)" d="m241154 87560c0 1963.7-1591.9 3555.6-3555.6 3555.6-943 0-1847.4-374.6-2514.2-1041.4s-1041.4-1571.2-1041.4-2514.2c0-1963.7 1591.9-3555.6 3555.6-3555.6s3555.6 1591.9 3555.6 3555.6z" stroke="#b4a7d6"/>
    <path transform="matrix(.0011476 0 0 .0011476 24.704 816.26)" d="m22269 38100c2131 2475.3 1162.3 11795 12786 14852 11624 3056.7 46602-4046 56956 3488s517.5 33170 5167 41716 18353 386.84 22730 9557c4377.2 9170.2-3266.7 37595 3533 45464s30031 285.5 37265 1751 5115.8 5868.3 6139 7042" stroke="#c00"/>
    <path transform="matrix(.0011476 0 0 .0011476 24.704 816.26)" d="m229589 124717c0 3907.6-3167.7 7075.3-7075.3 7075.3-1876.5 0-3676.1-745.43-5003-2072.3-1326.9-1326.9-2072.3-3126.5-2072.3-5003 0-3907.6 3167.7-7075.3 7075.3-7075.3s7075.3 3167.7 7075.3 7075.3z" stroke="#ea9999"/>
    <path transform="matrix(.0011476 0 0 .0011476 24.704 816.26)" d="m230527 124717c0 7509.5-6087.7 13597-13597 13597-3606.2 0-7064.7-1432.6-9614.6-3982.5-2550-2550-3982.5-6008.4-3982.5-9614.6 0-7509.5 6087.7-13597 13597-13597 7509.5 0 13597 6087.7 13597 13597z" stroke="#76a5af"/>
   </g>
   <path transform="matrix(.0011476 0 0 .0011476 24.704 816.26)" d="m196223 124718 53887-16850" stroke="#f00" stroke-dasharray="381, 1143" stroke-width="381"/>
   <path transform="matrix(.0011476 0 0 .0011476 24.704 816.26)" d="m223838 124720c0 5424.9-4397.7 9822.6-9822.6 9822.6-2605.1 0-5103.5-1034.9-6945.6-2877s-2877-4340.5-2877-6945.6c0-5424.9 4397.7-9822.6 9822.6-9822.6s9822.6 4397.7 9822.6 9822.6z" stroke="#ffd966" stroke-width="762"/>
   <path transform="matrix(.0011476 0 0 .0011476 24.704 816.26)" d="m214135 124725c0 2693.7-2185.5 4877.5-4881.4 4877.5-1294.6 0-2536.2-513.88-3451.7-1428.6-915.46-914.7-1429.7-2155.3-1429.7-3448.9 0-2693.8 2185.5-4877.5 4881.4-4877.5s4881.4 2183.7 4881.4 4877.5z" stroke="#3c78d8" stroke-width="762"/>
   <path transform="matrix(.0011476 0 0 .0011476 24.704 816.26)" d="m196223 124718 53887 16850" stroke="#f00" stroke-dasharray="381, 1143" stroke-width="381"/>
   <g stroke-width="762">
    <path transform="matrix(.0011476 0 0 .0011476 24.704 816.26)" d="m222592 124723c0 1713-1388.7 3101.7-3101.7 3101.7-822.62 0-1611.6-326.78-2193.2-908.45-581.67-581.68-908.45-1370.6-908.45-2193.2 0-1713 1388.7-3101.7 3101.7-3101.7s3101.7 1388.7 3101.7 3101.7z" stroke="#b6d7a8"/>
    <path transform="matrix(.0011476 0 0 .0011476 24.704 816.26)" d="m228986 124715c0 1963.7-1591.9 3555.6-3555.6 3555.6-942.99 0-1847.4-374.6-2514.2-1041.4-666.79-666.81-1041.4-1571.2-1041.4-2514.2 0-1963.7 1591.9-3555.6 3555.6-3555.6s3555.6 1591.9 3555.6 3555.6z" stroke="#b4a7d6"/>
    <path transform="matrix(.0011476 0 0 .0011476 24.704 816.26)" d="m224923 161871c0 3907.6-3167.7 7075.3-7075.3 7075.3-1876.5 0-3676.1-745.42-5003-2072.3-1326.9-1326.9-2072.3-3126.5-2072.3-5003 0-3907.6 3167.7-7075.3 7075.3-7075.3s7075.3 3167.7 7075.3 7075.3z" stroke="#ea9999"/>
    <path transform="matrix(.0011476 0 0 .0011476 24.704 816.26)" d="m225861 161871c0 7509.5-6087.7 13597-13597 13597-3606.2 0-7064.7-1432.6-9614.6-3982.5-2550-2550-3982.5-6008.5-3982.5-9614.7 0-7509.5 6087.7-13597 13597-13597 7509.5 0 13597 6087.7 13597 13597z" stroke="#76a5af"/>
   </g>
   <path transform="matrix(.0011476 0 0 .0011476 24.704 816.26)" d="m196223 161872 53887-16850" stroke="#f00" stroke-dasharray="381, 1143" stroke-width="381"/>
   <path transform="matrix(.0011476 0 0 .0011476 24.704 816.26)" d="m219172 161874c0 5424.9-4397.7 9822.6-9822.6 9822.6-2605.1 0-5103.5-1034.9-6945.6-2877s-2877-4340.5-2877-6945.6c0-5424.9 4397.7-9822.6 9822.6-9822.6s9822.6 4397.7 9822.6 9822.6z" stroke="#ffd966" stroke-width="762"/>
   <path transform="matrix(.0011476 0 0 .0011476 24.704 816.26)" d="m209470 161879c0 2693.7-2185.5 4877.4-4881.4 4877.4-1294.6 0-2536.3-513.88-3451.7-1428.6-915.45-914.69-1429.7-2155.3-1429.7-3448.9 0-2693.8 2185.5-4877.5 4881.4-4877.5s4881.4 2183.7 4881.4 4877.5z" stroke="#3c78d8" stroke-width="762"/>
   <path transform="matrix(.0011476 0 0 .0011476 24.704 816.26)" d="m196223 161872 53887 16850" stroke="#f00" stroke-dasharray="381, 1143" stroke-width="381"/>
   <g stroke-width="762">
    <path transform="matrix(.0011476 0 0 .0011476 24.704 816.26)" d="m217926 161878c0 1713-1388.7 3101.7-3101.7 3101.7-822.61 0-1611.5-326.78-2193.2-908.45-581.67-581.67-908.45-1370.6-908.45-2193.2 0-1713 1388.7-3101.6 3101.7-3101.6s3101.7 1388.6 3101.7 3101.6z" stroke="#b6d7a8"/>
    <path transform="matrix(.0011476 0 0 .0011476 24.704 816.26)" d="m224320 161869c0 1963.7-1591.9 3555.6-3555.6 3555.6-943 0-1847.4-374.61-2514.2-1041.4s-1041.4-1571.2-1041.4-2514.2c0-1963.7 1591.9-3555.6 3555.6-3555.6s3555.6 1591.9 3555.6 3555.6z" stroke="#b4a7d6"/>
    <path transform="matrix(.0011476 0 0 .0011476 24.704 816.26)" d="m21307 40809c2016.3 10172-2859.2 50228 12098 61032 14957 10804 62866-4909.2 77645 3792s2356.5 39808 11028 48415 34168 2691.7 41001 3230" stroke="#900"/>
   </g>
  </g>
  <g fill-rule="evenodd">
   <path transform="matrix(.0011476 0 0 .0011476 24.704 816.26)" d="m193755 165354-4704-3486 4704-3486z" fill="#900"/>
   <path transform="matrix(.0011476 0 0 .0011476 24.704 816.26)" d="m182174 159493c0-656.14 531.89-1188 1188-1188h5963.9c315.09 0 617.26 125.17 840.06 347.97s347.97 524.97 347.97 840.06v4751.9c0 656.14-531.89 1188-1188 1188h-5963.9c-656.14 0-1188-531.89-1188-1188z" fill="#900"/>
   <path transform="matrix(.0011476 0 0 .0011476 24.704 816.26)" d="m193755 128210-4704-3486 4704-3486z" fill="#c00"/>
   <path transform="matrix(.0011476 0 0 .0011476 24.704 816.26)" d="m182174 122349c0-656.12 531.89-1188 1188-1188h5963.9c315.09 0 617.26 125.16 840.06 347.96 222.8 222.81 347.97 524.98 347.97 840.06v4752c0 656.12-531.89 1188-1188 1188h-5963.9c-656.14 0-1188-531.9-1188-1188z" fill="#c00"/>
   <path transform="matrix(.0011476 0 0 .0011476 24.704 816.26)" d="m193755 91066-4704-3486 4704-3486z" fill="#e06666"/>
   <path transform="matrix(.0011476 0 0 .0011476 24.704 816.26)" d="m182174 85205c0-656.12 531.89-1188 1188-1188h5963.9c315.09 0 617.26 125.16 840.06 347.96 222.8 222.81 347.97 524.98 347.97 840.06v4752c0 656.12-531.89 1188-1188 1188h-5963.9c-656.14 0-1188-531.9-1188-1188z" fill="#e06666"/>
   <path transform="matrix(.0011476 0 0 .0011476 24.704 816.26)" d="m193755 53922-4704-3486 4704-3486z" fill="#ea9999"/>
   <path transform="matrix(.0011476 0 0 .0011476 24.704 816.26)" d="m182174 48061c0-656.13 531.89-1188 1188-1188h5963.9c315.09 0 617.26 125.17 840.06 347.96 222.8 222.8 347.97 524.98 347.97 840.06v4752c0 656.13-531.89 1188-1188 1188h-5963.9c-656.14 0-1188-531.9-1188-1188z" fill="#ea9999"/>
  </g>
 </g>
</svg>
